
<svg xmlns="http://www.w3.org/2000/svg" viewBox="0 0 640 640">
  <path fill="#003893" d="M0 0h640v640H0z"/>
  <path fill="#DC143C" d="M26.7 640L640 341.3V640z"/>
  <path fill="#DC143C" d="M26.7 0L640 0v298.7z"/>
  <path fill="#fff" d="M301.2 189.5c-7.5-19.8-26.1-37.1-38.8-43.4 6.6 11.4 10 24.1 11.2 36.9-14.3-19.8-32.4-31.2-46.5-37.1 5.7 11.5 13.1 23.4 12.2 36.9-5.9.1-24.2-4.4-43.3-21-3.9 17 1 31.4 8.1 44.4-18.2-1.1-29.3-7.9-38.5-15.4-1.1 5.8-2.9 10.9-1.5 19.8-10.4-3.3-21-8.6-27.4-17.2-2 7.4-2.4 14.8.2 22.3-15.3-7.4-20.6-12.5-25.9-15.7.9 21.2 13.1 35.5 22.7 48.1-18.5.3-28.5-5.7-33.5-9.7 6.7 19.3 17.6 28.9 30 36.6-16.7 4.5-24.7 2.2-32.6-.3 12.8 14.7 26.6 19.9 40.3 24.1-18.7 8-30.1 8-45.1 6.2 54.7 48.5 157 25.1 181.3-45.7 8.9 7.7 9.5 17 8.2 28.8 8.2-8.4 14.9-17.5 16.8-29.7 5.8 7.2 11 15.4 13.9 28.4 2.6-17 2.9-34.7-12.6-51.3z"/>
  <path fill="#fff" d="M217.4 211.6l-2.3-16.7 10.3 13.5 3.4-19.4 7.1 18.8 9.2-18.8 2.9 21.2 14.3-15.9-2.3 15.9 18.8-11.1-9.8 14.1 17.9-5.5-10.3 11.2h19.1l-17 8.1 17.9 2.5-16.7 5.9 13.4 7.4-17.9-1.2 10.3 15.3-17-8.5 4.1 17.6-13.8-13.7-.6 19.1-7.5-16.7-6.9 17.3-5.6-22.9-10.3 15.6.4-15.9-13.2 12.3 5-14.1-14.7 5 8.2-12.3-20 1.5 12.9-9-19.3-4.3 16.5-7.4-16.7-8.1 17.3-3.7-13.5-11.8z"/>
  <path fill="#fff" d="M278.1 269.9s7.2-27.2-19.6-45.5c0 0 22.5-2.4 43.5 33.2 0 0-3-27.2-25.7-43.3 0 0 22.2-.6 40.2 32.1 0 0 3-25.4-15.3-42.1 0 0 29.3 8 35.7 41.5 0 0 9-20.2-6.1-42.7 0 0 24.2 11.4 29 41.5 0 0 9.3-17.1 4.5-32.7 0 0 17.1 16.8 18.4 37 0 0 1.5-21.3-3.6-28.1 0 0 16.2 9.9 20.1 31.5l-5.1-22.5s13.5 17.1 13.5 31.5c0 0 4.5-12.6-.9-24.2 0 0 14.4 10.8 15.3 32.1l-1.5-21.3s9.6 10.8 9.9 28.8c-8.7-20.2-32.4-38.2-51.9-43.1C339.9 215 308 243.7 288 270.2l-9.9-.3z"/>
</svg>
